<svg width="288" height="288" viewBox="0 0 288 288" fill="none" xmlns="http://www.w3.org/2000/svg">
<g clip-path="url(#clip0_203_14)">
<path d="M66.5314 165.517C65.7208 165.517 64.8888 165.56 64.0354 165.645C63.1821 165.731 62.3928 165.816 61.6674 165.901C60.9421 165.987 60.3448 166.072 59.8754 166.157C59.4488 166.243 59.2354 166.285 59.2354 166.285L59.6194 163.341C61.6248 162.957 62.9474 162.403 63.5874 161.677C64.2701 160.909 64.6114 159.629 64.6114 157.837L64.6754 130.957C64.6754 129.592 64.5261 128.675 64.2274 128.205C63.9288 127.736 63.2888 127.501 62.3074 127.501C61.9234 127.501 61.4541 127.523 60.8994 127.565C60.3874 127.608 60.1314 127.629 60.1314 127.629L60.0034 127.373L60.4514 124.557C60.4514 124.557 60.6861 124.579 61.1554 124.621C61.6674 124.621 62.3074 124.643 63.0754 124.685C63.8434 124.685 64.6328 124.707 65.4434 124.749C66.2541 124.749 66.9581 124.749 67.5554 124.749C68.0248 124.749 68.5794 124.749 69.2194 124.749C69.8594 124.707 70.5208 124.685 71.2034 124.685C71.8861 124.643 72.5261 124.621 73.1234 124.621C73.7208 124.579 74.1901 124.557 74.5314 124.557C74.9154 124.515 75.1074 124.493 75.1074 124.493C79.1608 124.493 82.2754 125.325 84.4514 126.989C86.6274 128.653 87.7154 131.064 87.7154 134.221C87.7154 136.312 87.0754 138.232 85.7954 139.981C84.5154 141.688 82.6808 143.053 80.2914 144.077C82.3821 144.504 84.1528 145.187 85.6034 146.125C87.0968 147.064 88.2274 148.195 88.9954 149.517C89.8061 150.797 90.2114 152.227 90.2114 153.805C90.2114 156.024 89.5074 158.072 88.0994 159.949C86.7341 161.827 84.8994 163.341 82.5954 164.493C80.3341 165.603 77.8594 166.157 75.1714 166.157C74.4888 166.157 73.7848 166.115 73.0594 166.029C72.3768 165.987 71.6941 165.923 71.0114 165.837C70.3288 165.752 69.6034 165.667 68.8354 165.581C68.1101 165.539 67.3421 165.517 66.5314 165.517ZM69.4114 146.445L69.1554 158.413C69.1554 160.035 69.7101 161.187 70.8194 161.869C71.9288 162.552 73.8061 162.893 76.4514 162.893C79.0114 162.893 81.0168 162.189 82.4674 160.781C83.9608 159.331 84.7074 157.389 84.7074 154.957C84.7074 150.221 81.8274 147.341 76.0674 146.317L69.4114 146.445ZM69.5394 143.053C69.5394 143.053 69.8381 143.075 70.4354 143.117C71.0754 143.16 71.8221 143.224 72.6754 143.309C73.5288 143.395 74.3181 143.459 75.0434 143.501C75.7688 143.544 76.2594 143.565 76.5154 143.565C76.5154 143.565 76.8141 143.459 77.4114 143.245C78.0088 142.989 78.7128 142.584 79.5234 142.029C80.3341 141.432 81.0381 140.6 81.6354 139.533C82.2328 138.424 82.5314 137.016 82.5314 135.309C82.5314 132.536 81.6141 130.509 79.7794 129.229C77.9448 127.907 75.1074 127.245 71.2674 127.245C70.8408 127.245 70.5421 127.352 70.3714 127.565C70.2434 127.736 70.1581 128.12 70.1154 128.717C70.0301 130.083 69.9448 131.555 69.8594 133.133C69.8168 134.669 69.7528 136.269 69.6674 137.933C69.6248 139.555 69.5821 141.261 69.5394 143.053ZM107.806 166.285C105.374 166.285 103.219 165.688 101.342 164.493C99.4646 163.299 97.9926 161.635 96.9259 159.501C95.9019 157.325 95.3899 154.851 95.3899 152.077C95.3899 149.005 96.0299 146.253 97.3099 143.821C98.6326 141.347 100.425 139.405 102.686 137.997C104.947 136.547 107.465 135.821 110.238 135.821C112.67 135.821 114.825 136.419 116.702 137.613C118.579 138.808 120.03 140.472 121.054 142.605C122.121 144.739 122.654 147.213 122.654 150.029C122.654 153.059 121.993 155.811 120.67 158.285C119.39 160.76 117.619 162.723 115.358 164.173C113.139 165.581 110.622 166.285 107.806 166.285ZM109.598 163.149C111.987 163.149 113.886 162.189 115.294 160.269C116.702 158.307 117.406 155.661 117.406 152.333C117.406 149.773 117.022 147.512 116.254 145.549C115.486 143.587 114.419 142.051 113.054 140.941C111.689 139.832 110.11 139.277 108.318 139.277C105.929 139.277 104.03 140.259 102.622 142.221C101.214 144.184 100.51 146.851 100.51 150.221C100.51 152.781 100.894 155.043 101.662 157.005C102.43 158.925 103.497 160.44 104.862 161.549C106.227 162.616 107.806 163.149 109.598 163.149ZM139.681 166.285C137.249 166.285 135.094 165.688 133.217 164.493C131.34 163.299 129.868 161.635 128.801 159.501C127.777 157.325 127.265 154.851 127.265 152.077C127.265 149.005 127.905 146.253 129.185 143.821C130.508 141.347 132.3 139.405 134.561 137.997C136.822 136.547 139.34 135.821 142.113 135.821C144.545 135.821 146.7 136.419 148.577 137.613C150.454 138.808 151.905 140.472 152.929 142.605C153.996 144.739 154.529 147.213 154.529 150.029C154.529 153.059 153.868 155.811 152.545 158.285C151.265 160.76 149.494 162.723 147.233 164.173C145.014 165.581 142.497 166.285 139.681 166.285ZM141.473 163.149C143.862 163.149 145.761 162.189 147.169 160.269C148.577 158.307 149.281 155.661 149.281 152.333C149.281 149.773 148.897 147.512 148.129 145.549C147.361 143.587 146.294 142.051 144.929 140.941C143.564 139.832 141.985 139.277 140.193 139.277C137.804 139.277 135.905 140.259 134.497 142.221C133.089 144.184 132.385 146.851 132.385 150.221C132.385 152.781 132.769 155.043 133.537 157.005C134.305 158.925 135.372 160.44 136.737 161.549C138.102 162.616 139.681 163.149 141.473 163.149ZM159.012 163.277C160.164 163.107 160.975 162.808 161.444 162.381C161.913 161.912 162.191 161.229 162.276 160.333C162.361 159.437 162.404 158.285 162.404 156.877V125.453C162.404 123.149 161.615 121.997 160.036 121.997C159.695 121.997 159.332 122.04 158.948 122.125C158.607 122.211 158.436 122.253 158.436 122.253C158.436 122.04 158.436 121.848 158.436 121.677C158.479 121.464 158.521 121.272 158.564 121.101L158.692 119.885C159.801 119.757 160.911 119.587 162.02 119.373C163.129 119.16 164.153 118.947 165.092 118.733C166.031 118.52 166.777 118.349 167.332 118.221C167.887 118.093 168.164 118.029 168.164 118.029L168.548 118.861C168.377 119.16 168.207 120.12 168.036 121.741C167.865 123.363 167.695 125.496 167.524 128.141C167.396 130.787 167.268 133.795 167.14 137.165C167.012 140.493 166.905 144.056 166.82 147.853C166.777 151.608 166.756 155.405 166.756 159.245C166.756 160.568 166.927 161.507 167.268 162.061C167.652 162.573 168.249 162.829 169.06 162.829C169.444 162.829 169.913 162.808 170.468 162.765C171.023 162.723 171.3 162.701 171.3 162.701L171.428 162.957L170.852 165.709C170.852 165.709 170.66 165.688 170.276 165.645C169.892 165.645 169.401 165.624 168.804 165.581C168.207 165.581 167.567 165.56 166.884 165.517C166.244 165.517 165.625 165.517 165.028 165.517C164.132 165.517 163.193 165.539 162.212 165.581C161.231 165.667 160.399 165.731 159.716 165.773C159.033 165.859 158.692 165.901 158.692 165.901L159.012 163.277ZM168.356 150.541L168.484 149.517L176.1 142.221C176.697 141.667 177.103 141.24 177.316 140.941C177.529 140.6 177.636 140.28 177.636 139.981C177.636 139.512 177.359 139.171 176.804 138.957C176.249 138.744 175.353 138.637 174.116 138.637L173.924 138.317L174.5 136.461C174.5 136.461 174.884 136.483 175.652 136.525C176.42 136.525 177.295 136.547 178.276 136.589C179.3 136.589 180.196 136.589 180.964 136.589C181.775 136.589 182.649 136.568 183.588 136.525C184.527 136.44 185.337 136.376 186.02 136.333C186.703 136.248 187.044 136.205 187.044 136.205L187.236 136.525L186.724 138.509C185.188 138.936 183.631 139.768 182.052 141.005C180.516 142.2 178.98 143.544 177.444 145.037C175.951 146.531 174.5 147.96 173.092 149.325L179.812 157.965C181.305 159.843 182.628 161.187 183.78 161.997C184.975 162.808 186.233 163.213 187.556 163.213L187.748 163.533L187.364 165.389C187.364 165.389 187.023 165.475 186.34 165.645C185.7 165.816 184.996 165.987 184.228 166.157C183.503 166.328 182.969 166.413 182.628 166.413C182.201 166.413 181.796 166.349 181.412 166.221C181.071 166.093 180.729 165.944 180.388 165.773C179.705 165.432 179.023 164.899 178.34 164.173C177.7 163.405 176.889 162.339 175.908 160.973L168.356 150.541ZM199.592 166.285C198.056 166.285 196.712 166.157 195.56 165.901C194.408 165.688 193.512 165.475 192.872 165.261C192.275 165.048 191.976 164.941 191.976 164.941L191.784 164.493C191.87 164.024 191.955 163.256 192.04 162.189C192.168 161.08 192.275 159.928 192.36 158.733C192.488 157.539 192.552 156.6 192.552 155.917L194.792 155.597C194.792 158.413 195.262 160.397 196.2 161.549C197.139 162.701 198.739 163.277 201 163.277C202.622 163.277 203.987 162.915 205.096 162.189C206.206 161.464 206.76 160.568 206.76 159.501C206.76 158.776 206.547 158.115 206.12 157.517C205.694 156.92 204.947 156.259 203.88 155.533C202.814 154.808 201.299 153.933 199.336 152.909C196.904 151.672 195.134 150.413 194.024 149.133C192.915 147.853 192.36 146.445 192.36 144.909C192.36 143.16 192.872 141.603 193.896 140.237C194.92 138.872 196.328 137.805 198.12 137.037C199.912 136.227 201.918 135.821 204.136 135.821C205.886 135.821 207.379 135.992 208.616 136.333C209.896 136.675 210.536 136.845 210.536 136.845L210.664 137.165C210.664 137.165 210.579 137.528 210.408 138.253C210.28 138.979 210.11 139.939 209.896 141.133C209.726 142.285 209.576 143.565 209.448 144.973L207.08 145.165C207.08 145.165 207.102 144.931 207.144 144.461C207.187 143.992 207.208 143.608 207.208 143.309C207.208 141.773 206.782 140.664 205.928 139.981C205.118 139.256 203.795 138.893 201.96 138.893C200.51 138.893 199.272 139.235 198.248 139.917C197.267 140.6 196.776 141.432 196.776 142.413C196.776 143.437 197.203 144.397 198.056 145.293C198.952 146.189 200.382 147.149 202.344 148.173C204.648 149.368 206.44 150.456 207.72 151.437C209.043 152.376 209.96 153.293 210.472 154.189C211.027 155.085 211.304 156.067 211.304 157.133C211.304 158.755 210.75 160.269 209.64 161.677C208.574 163.085 207.144 164.216 205.352 165.069C203.603 165.88 201.683 166.285 199.592 166.285Z" fill="#04030F"/>
<path d="M222.014 166.251C220.819 166.251 219.923 165.888 219.326 165.163C218.728 164.395 218.43 163.541 218.43 162.603C218.43 161.493 218.792 160.555 219.518 159.787C220.243 159.019 221.203 158.635 222.398 158.635C223.592 158.635 224.488 158.997 225.086 159.723C225.726 160.448 226.046 161.301 226.046 162.283C226.046 163.349 225.683 164.288 224.958 165.099C224.232 165.867 223.251 166.251 222.014 166.251Z" fill="#15A189"/>
</g>
<defs>
<clipPath id="clip0_203_14">
<rect width="192" height="192" fill="white" transform="translate(48 48)"/>
</clipPath>
</defs>
</svg>
