<svg width="108" height="108" viewBox="0 0 108 108" fill="none" xmlns="http://www.w3.org/2000/svg">
<path d="M41.1643 74.563C40.3536 74.563 39.5216 74.6057 38.6683 74.691C37.8149 74.7763 37.0256 74.8617 36.3003 74.947C35.5749 75.0323 34.9776 75.1177 34.5083 75.203C34.0816 75.2883 33.8683 75.331 33.8683 75.331L34.2523 72.387C36.2576 72.003 37.5803 71.4483 38.2203 70.723C38.9029 69.955 39.2443 68.675 39.2443 66.883L39.3083 40.003C39.3083 38.6377 39.1589 37.7203 38.8603 37.251C38.5616 36.7817 37.9216 36.547 36.9403 36.547C36.5563 36.547 36.0869 36.5683 35.5323 36.611C35.0203 36.6537 34.7643 36.675 34.7643 36.675L34.6363 36.419L35.0843 33.603C35.0843 33.603 35.3189 33.6243 35.7883 33.667C36.3003 33.667 36.9403 33.6883 37.7083 33.731C38.4763 33.731 39.2656 33.7523 40.0763 33.795C40.8869 33.795 41.5909 33.795 42.1883 33.795C42.6576 33.795 43.2123 33.795 43.8523 33.795C44.4923 33.7523 45.1536 33.731 45.8363 33.731C46.5189 33.6883 47.1589 33.667 47.7563 33.667C48.3536 33.6243 48.8229 33.603 49.1643 33.603C49.5483 33.5603 49.7403 33.539 49.7403 33.539C53.7936 33.539 56.9083 34.371 59.0843 36.035C61.2603 37.699 62.3483 40.1097 62.3483 43.267C62.3483 45.3577 61.7083 47.2777 60.4283 49.027C59.1483 50.7337 57.3136 52.099 54.9243 53.123C57.0149 53.5497 58.7856 54.2323 60.2363 55.171C61.7296 56.1097 62.8602 57.2403 63.6283 58.563C64.4389 59.843 64.8443 61.2723 64.8443 62.851C64.8443 65.0697 64.1403 67.1177 62.7323 68.995C61.3669 70.8723 59.5323 72.387 57.2283 73.539C54.9669 74.6483 52.4923 75.203 49.8043 75.203C49.1216 75.203 48.4176 75.1603 47.6923 75.075C47.0096 75.0323 46.3269 74.9683 45.6443 74.883C44.9616 74.7977 44.2363 74.7123 43.4683 74.627C42.7429 74.5843 41.9749 74.563 41.1643 74.563ZM44.0443 55.491L43.7883 67.459C43.7883 69.0803 44.3429 70.2323 45.4523 70.915C46.5616 71.5977 48.4389 71.939 51.0843 71.939C53.6443 71.939 55.6496 71.235 57.1003 69.827C58.5936 68.3763 59.3403 66.435 59.3403 64.003C59.3403 59.267 56.4603 56.387 50.7003 55.363L44.0443 55.491ZM44.1723 52.099C44.1723 52.099 44.4709 52.1203 45.0683 52.163C45.7083 52.2057 46.4549 52.2697 47.3083 52.355C48.1616 52.4403 48.9509 52.5043 49.6763 52.547C50.4016 52.5897 50.8923 52.611 51.1483 52.611C51.1483 52.611 51.4469 52.5043 52.0443 52.291C52.6416 52.035 53.3456 51.6297 54.1563 51.075C54.9669 50.4777 55.6709 49.6457 56.2683 48.579C56.8656 47.4697 57.1643 46.0617 57.1643 44.355C57.1643 41.5817 56.2469 39.555 54.4123 38.275C52.5776 36.9523 49.7403 36.291 45.9003 36.291C45.4736 36.291 45.1749 36.3977 45.0043 36.611C44.8763 36.7817 44.7909 37.1657 44.7483 37.763C44.6629 39.1283 44.5776 40.6003 44.4923 42.179C44.4496 43.715 44.3856 45.315 44.3003 46.979C44.2576 48.6003 44.2149 50.307 44.1723 52.099Z" fill="black"/>
<path d="M71.3798 75.205C70.1851 75.205 69.2891 74.8423 68.6918 74.117C68.0944 73.349 67.7958 72.4957 67.7958 71.557C67.7958 70.4477 68.1584 69.509 68.8838 68.741C69.6091 67.973 70.5691 67.589 71.7638 67.589C72.9584 67.589 73.8544 67.9517 74.4518 68.677C75.0918 69.4023 75.4118 70.2557 75.4118 71.237C75.4118 72.3037 75.0491 73.2423 74.3238 74.053C73.5984 74.821 72.6171 75.205 71.3798 75.205Z" fill="#15A189"/>
</svg>
